<?xml version="1.0" encoding="UTF-8" standalone="no"?>
<!-- Uploaded to: SVG Repo, www.svgrepo.com, Generator: SVG Repo Mixer Tools -->

<svg
   width="128"
   height="128"
   version="1.1"
   id="svg1"
   sodipodi:docname="text-x-makefile-svgrepo-com.svg"
   inkscape:version="1.4.2 (f4327f4, 2025-05-13)"
   xmlns:inkscape="http://www.inkscape.org/namespaces/inkscape"
   xmlns:sodipodi="http://sodipodi.sourceforge.net/DTD/sodipodi-0.dtd"
   xmlns="http://www.w3.org/2000/svg"
   xmlns:svg="http://www.w3.org/2000/svg"
   xmlns:rdf="http://www.w3.org/1999/02/22-rdf-syntax-ns#"
   xmlns:cc="http://creativecommons.org/ns#"
   xmlns:dc="http://purl.org/dc/elements/1.1/">
  <defs
     id="defs1" />
  <sodipodi:namedview
     id="namedview1"
     pagecolor="#505050"
     bordercolor="#eeeeee"
     borderopacity="1"
     inkscape:showpageshadow="0"
     inkscape:pageopacity="0"
     inkscape:pagecheckerboard="0"
     inkscape:deskcolor="#505050"
     inkscape:zoom="10.71875"
     inkscape:cx="63.953353"
     inkscape:cy="64"
     inkscape:window-width="2880"
     inkscape:window-height="1676"
     inkscape:window-x="-12"
     inkscape:window-y="-12"
     inkscape:window-maximized="1"
     inkscape:current-layer="svg1" />
  <title
     id="title1">Config File Icon</title>
  <desc
     id="desc1">This is shape (source) for Clarity vector icon theme for gtk</desc>
  <metadata
     id="metadata1">
    <rdf:RDF>
      <cc:Work
         rdf:about="">
        <dc:title>Config File Icon</dc:title>
        <dc:description>This is shape (source) for Clarity vector icon theme for gtk</dc:description>
        <dc:creator>
          <cc:Agent>
            <dc:title>Jakub Jankiewicz</dc:title>
          </cc:Agent>
        </dc:creator>
        <dc:rights>
          <cc:Agent>
            <dc:title>Jakub Jankiewicz</dc:title>
          </cc:Agent>
        </dc:rights>
        <dc:date>2010</dc:date>
        <dc:format>image/svg+xml</dc:format>
        <dc:type
           rdf:resource="http://purl.org/dc/dcmitype/StillImage" />
        <cc:license
           rdf:resource="http://creativecommons.org/licenses/by-sa/3.0/" />
      </cc:Work>
    </rdf:RDF>
  </metadata>
  <path
     d="m 29.09375,11.234375 c -3.183804,0 -5.71875,2.566196 -5.71875,5.75 l 0,94.031255 c 0,3.1838 2.534946,5.75 5.71875,5.75 l 69.8125,0 c 3.1838,0 5.71875,-2.5662 5.71875,-5.75 l 0,-70.656255 -21.03125,0 c -4.306108,0 -8.0625,-3.141109 -8.0625,-7.3125 l 0,-21.8125 -46.4375,0 z m 50.4375,0 0,21.8125 c 0,1.714122 1.631968,3.3125 4.0625,3.3125 l 21.03125,0 -25.09375,-25.125 z m -32.34375,29.3125 1.71875,0 1.65625,3.5 0.03125,0.75 -0.53125,2.4375 3.25,1.3125 1.3125,-2.0625 0.59375,-0.53125 3.59375,-1.25 1.25,1.21875 -1.28125,3.59375 -0.5,0.59375 -2.0625,1.3125 1.3125,3.28125 2.40625,-0.5625 0.78125,0.03125 3.46875,1.65625 0,1.75 -3.46875,1.65625 -0.78125,0 -2.40625,-0.5 -1.3125,3.21875 2.0625,1.375 0.5,0.59375 1.28125,3.59375 -1.25,1.25 -3.59375,-1.28125 -0.59375,-0.5625 -1.3125,-2.0625 -3.25,1.34375 0.53125,2.40625 -0.03125,0.78125 -1.65625,3.4375 -1.71875,0 -1.65625,-3.4375 -0.0625,-0.78125 0.53125,-2.40625 -3.25,-1.34375 -1.3125,2.0625 -0.59375,0.5625 -3.59375,1.28125 -1.25,-1.25 1.28125,-3.59375 0.5625,-0.59375 2.0625,-1.375 -1.34375,-3.21875 -2.40625,0.5 -0.8125,0 -3.46875,-1.65625 0,-1.75 3.46875,-1.65625 0.8125,-0.03125 2.40625,0.5625 1.34375,-3.28125 -2.0625,-1.3125 -0.5625,-0.59375 L 36,45.921875 l 1.25,-1.21875 3.59375,1.25 0.59375,0.53125 1.3125,2.0625 3.25,-1.3125 -0.53125,-2.4375 0.0625,-0.75 1.65625,-3.5 z m 0.875,10.875 c -2.927972,0 -5.34375,2.353278 -5.34375,5.28125 0,2.927972 2.415778,5.3125 5.34375,5.3125 2.927972,0 5.28125,-2.384528 5.28125,-5.3125 0,-2.927972 -2.353278,-5.28125 -5.28125,-5.28125 z m 18.15625,10.3125 3.09375,3.34375 0.46875,1.15625 0.40625,2.75 4.46875,0 0.40625,-2.75 0.4375,-1.15625 3.125,-3.34375 2.25,0.71875 0.53125,4.53125 -0.28125,1.21875 -1.3125,2.4375 3.625,2.65625 1.90625,-2 1.0625,-0.625 4.5,-0.90625 1.375,1.90625 -2.21875,3.96875 -0.96875,0.8125 -2.46875,1.1875 1.40625,4.28125 2.71875,-0.46875 1.21875,0.09375 4.15625,1.90625 0,2.34375 -4.15625,1.9375 -1.21875,0.09375 -2.71875,-0.46875 -1.40625,4.25 2.46875,1.21875 0.96875,0.78125 2.21875,4.03125 -1.375,1.875 -4.5,-0.875 -1.0625,-0.65625 -1.90625,-2 -3.625,2.65625 1.3125,2.406255 0.28125,1.21875 -0.53125,4.5625 -2.25,0.75 -3.125,-3.40625 -0.4375,-1.125 -0.40625,-2.71875 -4.46875,0 -0.40625,2.71875 -0.46875,1.125 -3.09375,3.40625 -2.25,-0.75 -0.53125,-4.5625 0.3125,-1.21875 1.28125,-2.406255 -3.625,-2.65625 -1.9375,2 -1.0625,0.65625 -4.46875,0.875 -1.375,-1.875 2.21875,-4.03125 0.9375,-0.78125 2.46875,-1.21875 -1.34375,-4.25 -2.71875,0.46875 -1.21875,-0.09375 -4.1875,-1.9375 0,-2.34375 4.1875,-1.90625 1.21875,-0.09375 2.71875,0.46875 1.34375,-4.28125 -2.46875,-1.1875 -0.9375,-0.8125 -2.21875,-3.96875 1.375,-1.90625 4.46875,0.90625 1.0625,0.625 1.9375,2 3.625,-2.65625 -1.28125,-2.4375 -0.3125,-1.21875 0.53125,-4.53125 2.25,-0.71875 z m 6.1875,14.09375 c -4.866236,0 -8.8125,3.946264 -8.8125,8.8125 0,4.866238 3.946264,8.8125 8.8125,8.8125 4.866237,0 8.8125,-3.946262 8.8125,-8.8125 0,-4.866236 -3.946263,-8.8125 -8.8125,-8.8125 z"
     id="path1" />
  <path
     style="fill:#ff5555;stroke-width:0.0932945"
     d="m 28.302738,116.65858 c -1.063856,-0.15726 -2.120346,-0.65317 -3.008002,-1.41191 -0.563103,-0.48133 -1.293124,-1.59018 -1.564658,-2.37662 l -0.219874,-0.63681 V 64 15.766764 l 0.219874,-0.636816 c 0.466296,-1.350517 1.568719,-2.606739 2.83441,-3.229837 1.348246,-0.663739 -0.994588,-0.604949 25.282135,-0.634416 l 23.671697,-0.02655 0.0251,11.593254 0.0251,11.593253 0.247482,0.725649 c 0.837917,2.456878 2.837379,4.219687 5.665626,4.995049 l 0.897388,0.246019 11.079311,0.02931 11.079313,0.02931 -0.0239,35.937773 -0.0239,35.937778 -0.22189,0.59317 c -0.2994,0.80041 -1.03374,1.87531 -1.62517,2.37887 -0.60417,0.51442 -1.52434,1.02021 -2.2579,1.24111 -0.535223,0.16117 -2.116458,0.16918 -36.058312,0.18255 -19.524199,0.008 -35.734905,-0.0209 -36.023793,-0.0636 z m 39.488894,-10.7274 c 1.826423,-2.01531 1.945088,-2.23631 2.225575,-4.14498 0.102781,-0.69941 0.186875,-1.31133 0.186875,-1.35983 0,-0.0529 0.875483,-0.0882 2.186132,-0.0882 2.00147,0 2.190205,0.0138 2.234343,0.16327 0.02652,0.0898 0.115473,0.66705 0.197683,1.2828 0.252733,1.89294 0.391068,2.15635 2.131288,4.05831 0.821599,0.89795 1.524605,1.66885 1.562236,1.71308 0.03763,0.0442 0.592412,-0.0942 1.232846,-0.30762 l 1.164425,-0.38804 0.10805,-0.90522 c 0.43969,-3.68354 0.438658,-3.66807 0.287693,-4.3171 -0.08765,-0.37685 -0.390751,-1.07328 -0.786661,-1.807515 -0.513134,-0.951639 -0.617444,-1.210433 -0.51312,-1.273045 0.07202,-0.04322 0.865639,-0.623983 1.763598,-1.290577 l 1.632653,-1.211989 0.979592,1.007205 c 1.425045,1.465217 1.563363,1.533549 4.099261,2.02513 1.157651,0.224408 2.180435,0.426459 2.272855,0.449 0.124661,0.03041 0.330652,-0.179837 0.798037,-0.814503 0.346501,-0.470517 0.662901,-0.909905 0.70311,-0.976417 0.04621,-0.07643 -0.333252,-0.861648 -1.031273,-2.134008 -1.305532,-2.379738 -1.462805,-2.542644 -3.296801,-3.414872 -0.641399,-0.305043 -1.179964,-0.567327 -1.19681,-0.582852 -0.01685,-0.01553 0.271861,-0.969335 0.641573,-2.119576 l 0.672203,-2.091349 1.224316,0.221851 c 0.815469,0.147767 1.473554,0.212022 1.970672,0.192414 0.7277,-0.0287 0.798239,-0.0537 2.822157,-1.000256 l 2.075802,-0.97082 V 84.620708 83.395923 L 94.06414,82.453568 c -2.533747,-1.15025 -2.654984,-1.171757 -4.631689,-0.821672 -0.738684,0.130825 -1.352182,0.226498 -1.363332,0.212605 -0.041,-0.05108 -1.351918,-4.039565 -1.351918,-4.113218 0,-0.04191 0.564332,-0.347575 1.254071,-0.679254 1.764205,-0.848363 1.98512,-1.079841 3.310891,-3.469188 l 1.050018,-1.892378 -0.164178,-0.253394 c -0.133794,-0.206499 -1.108785,-1.560286 -1.215634,-1.687923 -0.01617,-0.01931 -1.02817,0.165308 -2.248898,0.410262 -2.755015,0.552827 -2.954538,0.647836 -4.305066,2.050004 -0.597266,0.620102 -0.994062,0.963511 -1.065666,0.922284 -0.169554,-0.09762 -3.17216,-2.286621 -3.319731,-2.420192 -0.105323,-0.09533 -0.01953,-0.311109 0.503941,-1.267425 0.409299,-0.747741 0.684722,-1.381902 0.78419,-1.805595 0.148677,-0.633308 0.145559,-0.717965 -0.103079,-2.798834 -0.141015,-1.180175 -0.258354,-2.210455 -0.260754,-2.289511 -0.0031,-0.101546 -0.348198,-0.249891 -1.175704,-0.505366 -1.151036,-0.355359 -1.17423,-0.358528 -1.337942,-0.182792 -0.09163,0.09836 -0.784179,0.838138 -1.538997,1.643953 -1.642788,1.753774 -1.750131,1.962356 -2.054742,3.992608 l -0.202964,1.35277 -2.211437,0.02501 c -1.216292,0.01376 -2.211438,-0.01161 -2.211438,-0.05636 0,-0.04476 -0.08503,-0.643768 -0.188952,-1.331134 -0.29753,-1.967936 -0.404141,-2.168707 -2.158424,-4.064819 -0.822535,-0.889035 -1.534516,-1.64053 -1.58218,-1.669988 -0.04766,-0.02946 -0.59043,0.103678 -1.206149,0.295856 -0.90849,0.283559 -1.127094,0.38597 -1.159848,0.543357 -0.0222,0.106668 -0.149735,1.147547 -0.283413,2.313065 -0.236,2.05766 -0.238446,2.136132 -0.08432,2.705539 0.0873,0.322529 0.444843,1.133814 0.794541,1.802856 l 0.635816,1.216439 -1.778247,1.294504 -1.778245,1.294504 -0.998308,-1.006232 c -1.438317,-1.449735 -1.569335,-1.513249 -4.206436,-2.039164 -1.205831,-0.240477 -2.222005,-0.43721 -2.258164,-0.437182 -0.09222,6.9e-5 -1.38032,1.81779 -1.38032,1.947859 0,0.05861 0.486226,0.97727 1.080503,2.041474 0.762872,1.366113 1.194824,2.038313 1.469388,2.286648 0.213886,0.193452 0.966144,0.645045 1.671683,1.003537 0.705539,0.358494 1.283564,0.683013 1.284499,0.721155 0.0016,0.0652 -1.22441,4.051956 -1.26276,4.106268 -0.0098,0.01389 -0.622212,-0.08142 -1.360895,-0.21181 -2.013225,-0.355362 -2.164319,-0.328497 -4.693737,0.834573 l -2.060402,0.947409 -0.02421,1.208116 -0.02422,1.208115 2.122712,0.979592 c 2.011094,0.928081 2.159555,0.981282 2.823357,1.011748 0.43883,0.02014 1.10852,-0.04087 1.792167,-0.163265 0.600338,-0.107482 1.16933,-0.195422 1.264426,-0.195422 0.14331,0 0.279869,0.339315 0.797867,1.982507 0.34373,1.090379 0.624577,2.02449 0.624104,2.075802 -4.74e-4,0.05131 -0.598942,0.39798 -1.329931,0.770373 -0.730989,0.372394 -1.480294,0.813211 -1.665124,0.979592 -0.216419,0.194819 -0.722911,1.004006 -1.42274,2.273013 -0.597678,1.083776 -1.086687,2.021466 -1.086687,2.083756 0,0.06229 0.303607,0.527859 0.674683,1.034597 0.542871,0.74134 0.71147,0.912359 0.862973,0.875367 0.10356,-0.02529 1.118372,-0.228068 2.255138,-0.450627 2.510202,-0.491456 2.733792,-0.603547 4.118379,-2.064627 l 0.923965,-0.975011 1.777658,1.304658 1.777658,1.304659 -0.609204,1.143495 c -0.335062,0.628916 -0.6894,1.431656 -0.787418,1.783846 l -0.178216,0.64036 0.241899,2.15848 c 0.133044,1.18716 0.2741,2.23996 0.313458,2.33956 0.05026,0.12717 0.374993,0.28469 1.090817,0.5291 0.560593,0.19141 1.067184,0.35133 1.12576,0.35537 0.05858,0.004 0.79327,-0.75046 1.632653,-1.67665 z M 49.733345,71.253644 c 0.985895,-2.013227 1.013496,-2.177407 0.644764,-3.835346 -0.139694,-0.628115 -0.237514,-1.158504 -0.217377,-1.178641 0.02014,-0.02014 0.732568,-0.325121 1.58318,-0.677743 l 1.546568,-0.641129 0.672184,1.050782 c 0.369701,0.577929 0.80638,1.16842 0.970396,1.312202 0.198849,0.174315 0.899889,0.475318 2.103963,0.903369 l 1.80575,0.64195 0.642999,-0.642999 0.643,-0.643 -0.648494,-1.803075 c -0.356671,-0.991691 -0.758525,-1.947333 -0.893007,-2.123649 -0.134483,-0.176316 -0.692918,-0.619536 -1.240966,-0.984934 -0.548048,-0.365397 -1.009421,-0.674731 -1.025273,-0.687408 -0.07678,-0.0614 1.238299,-3.121866 1.341461,-3.121866 0.06517,0 0.615151,0.108351 1.222172,0.240779 1.561613,0.340685 1.708818,0.314828 3.692594,-0.648599 l 1.655977,-0.804231 V 56.69814 55.786175 l -1.702624,-0.80313 c -0.936443,-0.441722 -1.878202,-0.82922 -2.092799,-0.861108 -0.27551,-0.04094 -0.736496,0.0243 -1.568626,0.221996 -0.648148,0.153985 -1.210102,0.279974 -1.248786,0.279974 -0.07499,0 -1.362252,-3.164144 -1.304638,-3.206839 0.01875,-0.01389 0.488009,-0.311837 1.042797,-0.662094 0.554787,-0.350258 1.113222,-0.773861 1.240965,-0.941341 0.127743,-0.16748 0.524082,-1.115892 0.880753,-2.107583 l 0.648494,-1.803075 -0.633308,-0.633307 -0.633306,-0.633306 -1.815918,0.623415 c -2.124408,0.72932 -2.198934,0.782896 -3.138178,2.255998 -0.337296,0.529012 -0.660571,0.942997 -0.71839,0.919967 -1.851147,-0.737332 -3.00405,-1.205602 -3.0294,-1.230442 -0.01768,-0.01732 0.07678,-0.538685 0.209913,-1.158578 0.373119,-1.737318 0.373251,-1.736457 -0.573141,-3.756954 l -0.817452,-1.745218 -0.932945,-3.16e-4 -0.932944,-3.15e-4 -0.793003,1.691572 c -0.46169,0.984842 -0.815989,1.87003 -0.848021,2.118712 -0.03815,0.296168 0.02586,0.79699 0.20876,1.633345 0.145076,0.663414 0.253799,1.213129 0.241605,1.221588 -0.02154,0.01495 -2.737266,1.119864 -3.004568,1.222439 -0.09194,0.03528 -0.348633,-0.278143 -0.824325,-1.006497 -0.379946,-0.581752 -0.79714,-1.15504 -0.927098,-1.273974 -0.139358,-0.127535 -0.995383,-0.482311 -2.086752,-0.864842 l -1.850465,-0.6486 -0.641391,0.64139 -0.64139,0.64139 0.627653,1.762811 c 0.345209,0.969546 0.725513,1.894383 0.845121,2.055193 0.119607,0.16081 0.701631,0.601626 1.293385,0.979592 0.591754,0.377966 1.076132,0.727141 1.076395,0.775946 4.58e-4,0.08499 -1.200757,3.048657 -1.262887,3.115823 -0.01656,0.0179 -0.579156,-0.09798 -1.250217,-0.257509 -0.851061,-0.202322 -1.339751,-0.273603 -1.615655,-0.235659 -0.217549,0.02992 -1.161725,0.415472 -2.098168,0.856789 l -1.702624,0.802392 v 0.922833 0.922833 l 1.733457,0.833572 c 1.996072,0.959856 1.97713,0.956742 3.653955,0.600815 0.603104,-0.128016 1.142817,-0.232972 1.199362,-0.233236 0.09012,-4.21e-4 1.343255,2.86061 1.343255,3.066794 0,0.04359 -0.45537,0.380339 -1.011933,0.74834 -0.556564,0.368002 -1.124434,0.786519 -1.261934,0.930039 -0.170568,0.178033 -0.460562,0.84726 -0.912702,2.106258 l -0.662701,1.845314 0.650932,0.650934 0.650933,0.650933 1.792713,-0.63803 c 1.056182,-0.375896 1.915137,-0.738551 2.090689,-0.8827 0.163886,-0.134569 0.591557,-0.71178 0.950377,-1.28269 0.358821,-0.570912 0.697664,-1.03807 0.752985,-1.038129 0.08358,-9e-5 3.020096,1.19134 3.095659,1.255996 0.01333,0.0114 -0.09551,0.549031 -0.24187,1.194727 -0.359652,1.586721 -0.331601,1.744196 0.681061,3.823221 l 0.806601,1.655977 h 0.87575 0.875751 z"
     id="path2" />
  <path
     style="fill:#ff5555;stroke-width:0.0932945"
     d="m 47.393586,61.929091 c -2.577074,-0.341802 -4.610823,-2.657365 -4.616697,-5.256429 -0.0054,-2.395832 1.810216,-4.569536 4.243519,-5.080415 0.81638,-0.171401 1.323805,-0.172915 2.109881,-0.0063 2.758059,0.584618 4.627798,3.403366 4.057323,6.11667 -0.571747,2.719355 -3.123414,4.580675 -5.794026,4.226467 z"
     id="path3" />
  <path
     style="fill:#ff5555;stroke-width:0.0932945"
     d="m 71.276968,93.32916 c -2.793603,-0.349232 -5.395634,-2.199923 -6.672869,-4.74607 -0.728384,-1.452022 -0.981711,-2.686005 -0.904752,-4.40714 0.05683,-1.270967 0.256018,-2.109387 0.760584,-3.201454 1.178269,-2.550209 3.583251,-4.421629 6.352861,-4.943433 1.072474,-0.202058 2.760491,-0.144258 3.794645,0.129933 1.876622,0.49756 3.627063,1.671781 4.800702,3.220382 0.520231,0.686437 1.269432,2.21888 1.471294,3.009438 1.165032,4.562647 -1.406455,9.19698 -5.88673,10.609064 -1.252696,0.394822 -2.387211,0.49536 -3.715735,0.32928 z"
     id="path4" />
  <path
     style="fill:#c2544f;stroke-width:0.0932945;fill-opacity:1"
     d="m 82.705539,36.233768 c -0.77286,-0.124429 -1.77764,-0.656304 -2.266029,-1.199509 -0.506957,-0.563859 -0.703014,-0.962017 -0.817307,-1.659814 -0.05098,-0.311256 -0.08782,-5.038765 -0.08813,-11.31007 l -5.4e-4,-10.775276 6.956385,6.950203 c 3.826012,3.822611 9.435826,9.458657 12.466252,12.524546 l 5.50986,5.574344 -10.623681,-0.01091 c -5.843027,-0.006 -10.854589,-0.04808 -11.136805,-0.09352 z"
     id="path5" />
  <path
     style="fill:#c2544f;fill-opacity:1;stroke-width:0.0932945"
     d="m 28.268222,116.59956 c -0.79997,-0.10637 -1.979574,-0.63903 -2.731669,-1.23353 -0.602717,-0.47642 -1.318439,-1.48475 -1.693663,-2.38608 l -0.286572,-0.68838 0.02359,-48.402343 0.02359,-48.402347 0.389487,-0.793002 c 0.214219,-0.436152 0.584066,-1.019769 0.821883,-1.296927 0.819387,-0.954932 2.022303,-1.734659 2.91966,-1.892515 0.503057,-0.08849 47.582041,-0.275572 47.694042,-0.189523 0.02566,0.01971 0.06764,5.290666 0.09329,11.713233 l 0.04665,11.677393 0.301755,0.746356 c 0.882573,2.18295 2.593864,3.725984 5.081586,4.581955 l 1.053977,0.362651 11.241982,0.0545 c 6.183091,0.02997 11.24199,0.06146 11.24199,0.06997 0,0.0085 -0.0124,16.185679 -0.0276,35.949269 l -0.0276,35.9338 -0.32005,0.6927 c -0.69909,1.51311 -1.51557,2.35984 -2.93665,3.04546 l -0.793,0.38259 -1.492715,0.0613 c -1.571181,0.0646 -70.141216,0.0776 -70.623906,0.0134 z M 67.267297,106.5656 c 1.291677,-1.35687 2.074629,-2.33258 2.339472,-2.91545 0.220426,-0.48512 0.441573,-1.51697 0.551866,-2.57496 l 0.06419,-0.61577 1.264586,-0.0572 c 1.371769,-0.062 2.9854,0.0101 3.06379,0.13698 0.02691,0.0435 0.130794,0.61437 0.230856,1.26851 0.304176,1.98851 0.373776,2.11489 2.427462,4.4077 1.435636,1.60279 1.171463,1.50595 2.76288,1.01298 0.849234,-0.26306 0.957133,-0.32105 0.999599,-0.53717 0.173818,-0.88458 0.440687,-3.81743 0.40897,-4.49451 -0.03614,-0.77147 -0.06178,-0.8502 -0.711046,-2.18283 -0.370456,-0.760366 -0.662243,-1.39166 -0.648417,-1.402875 0.01383,-0.01121 0.77804,-0.571165 1.698251,-1.244334 l 1.673112,-1.223945 1.081982,1.059168 c 0.59509,0.582542 1.248604,1.142028 1.452252,1.243304 0.49324,0.245291 1.156321,0.415395 3.201948,0.821417 l 1.712143,0.339831 0.213559,-0.200629 c 0.117459,-0.110346 0.456276,-0.537731 0.752927,-0.949743 l 0.539367,-0.749115 -0.396482,-0.806848 c -0.218065,-0.443765 -0.676617,-1.310637 -1.019005,-1.92638 -0.864162,-1.55409 -1.311655,-1.986019 -2.884915,-2.784579 -0.679883,-0.345097 -1.236151,-0.652362 -1.236151,-0.68281 0,-0.0544 1.22862,-3.973026 1.260531,-4.020408 0.009,-0.01333 0.509881,0.06014 1.113116,0.163266 0.603234,0.103127 1.459965,0.187154 1.903845,0.186724 0.880336,-8.51e-4 1.016091,-0.04911 3.955192,-1.405945 l 1.095659,-0.505811 -0.02277,-1.302165 -0.02277,-1.302165 -1.306122,-0.597295 c -3.089149,-1.412681 -3.365296,-1.471423 -5.352429,-1.138578 -0.683435,0.114476 -1.275349,0.172255 -1.315365,0.128398 -0.08088,-0.08864 -1.309529,-3.757256 -1.307774,-3.904869 6.09e-4,-0.05128 0.525639,-0.361049 1.166731,-0.688375 1.810709,-0.924501 2.041932,-1.177735 3.576624,-3.917116 l 0.855382,-1.526829 -0.662852,-0.928417 c -0.364568,-0.51063 -0.725374,-0.95241 -0.801792,-0.981734 -0.157321,-0.06037 -2.443735,0.353867 -3.723676,0.674629 -1.250209,0.313311 -1.712234,0.58829 -2.845781,1.693698 L 83.37543,73.109319 81.988273,72.099833 C 81.225335,71.544647 80.463478,70.98249 80.295256,70.850627 l -0.305858,-0.239753 0.675172,-1.371198 c 0.642832,-1.305519 0.677026,-1.407988 0.713891,-2.139257 0.03285,-0.651688 -0.250119,-3.839002 -0.401174,-4.518699 -0.03752,-0.168829 -0.228174,-0.264456 -1.069515,-0.536443 -0.563121,-0.182046 -1.110654,-0.330991 -1.21674,-0.330991 -0.190049,0 -0.912915,0.713159 -2.411389,2.379008 -1.038563,1.154567 -1.214327,1.597702 -1.60043,4.034986 l -0.10715,0.676385 h -2.171941 -2.17194 l -0.06386,-0.583091 c -0.104718,-0.95621 -0.422969,-2.402519 -0.60823,-2.764141 -0.24141,-0.471224 -0.582615,-0.886044 -1.992332,-2.422182 -1.207554,-1.315846 -1.233253,-1.337058 -1.557193,-1.285258 -0.408029,0.06525 -1.95835,0.578038 -2.060141,0.681422 -0.08403,0.08535 -0.552844,3.880185 -0.552844,4.475062 0,0.550636 0.240908,1.222918 0.911344,2.543218 0.323455,0.636983 0.555098,1.187738 0.514763,1.223898 -0.104728,0.09389 -3.126552,2.27789 -3.278626,2.3696 -0.08885,0.05358 -0.394716,-0.188136 -1.026239,-0.811 -1.131026,-1.115516 -1.565226,-1.422504 -2.336917,-1.652248 -0.673737,-0.20058 -3.837225,-0.842406 -4.151217,-0.842221 -0.139406,8.2e-5 -0.356993,0.227977 -0.755557,0.791352 -0.845661,1.195351 -0.846962,1.029478 0.02066,2.634974 0.976751,1.807434 1.513473,2.636708 1.923591,2.972083 0.182961,0.149617 0.880381,0.565908 1.549825,0.925091 0.669444,0.359184 1.217198,0.700588 1.217232,0.758676 10e-5,0.17249 -1.130277,3.805905 -1.210279,3.890244 -0.04043,0.04262 -0.652123,-0.01506 -1.359323,-0.12817 -2.034779,-0.325456 -2.226899,-0.284628 -5.292947,1.124825 l -1.47194,0.676646 0.02588,1.261527 0.02587,1.261526 1.492712,0.694115 c 2.445336,1.13709 2.7354,1.236175 3.617589,1.235766 0.421987,-1.95e-4 1.145093,-0.06243 1.606901,-0.138313 1.378762,-0.226535 1.292433,-0.260207 1.611252,0.628465 0.515696,1.437443 0.992439,3.148021 0.901786,3.235647 -0.04806,0.04646 -0.612164,0.365404 -1.253563,0.708772 -0.6414,0.34337 -1.300312,0.724997 -1.464251,0.848063 -0.163939,0.123065 -0.524154,0.590728 -0.800478,1.039251 -0.775341,1.258516 -1.840227,3.261712 -1.840227,3.461718 0,0.170835 0.849405,1.445398 1.215037,1.823206 0.169208,0.174844 0.198151,0.172736 1.694299,-0.123357 3.351004,-0.663176 3.564142,-0.756874 4.943778,-2.173315 l 0.995971,-1.022543 1.731093,1.272752 1.731094,1.272751 -0.57493,1.137566 c -0.819701,1.621868 -0.993962,2.218248 -0.897577,3.071818 0.294481,2.60785 0.477735,3.86588 0.578118,3.96874 0.14366,0.1472 1.803954,0.75654 2.078712,0.7629 0.138001,0.003 0.514748,-0.32478 1.200273,-1.0449 z M 49.675154,71.493241 c 0.3726,-0.779008 0.735872,-1.581955 0.807273,-1.784324 0.182662,-0.51772 0.16174,-1.214422 -0.07072,-2.355199 -0.129549,-0.635734 -0.168509,-1.016154 -0.110054,-1.074609 0.09291,-0.09291 2.942592,-1.313403 2.975781,-1.274498 0.01015,0.0119 0.220051,0.336497 0.466452,0.721337 0.914225,1.427874 1.106078,1.630956 1.838824,1.946443 0.37062,0.159573 1.260374,0.500785 1.977231,0.758251 l 1.303378,0.468119 0.632483,-0.627637 c 0.347865,-0.3452 0.632482,-0.687757 0.632482,-0.761237 0,-0.173774 -0.882726,-2.599978 -1.209116,-3.323298 -0.285486,-0.632671 -0.665327,-1.009862 -1.741611,-1.72946 -0.403923,-0.270061 -0.750961,-0.504761 -0.771197,-0.521557 -0.05185,-0.04303 0.220377,-0.747103 0.761896,-1.970557 0.338613,-0.76503 0.509169,-1.049563 0.629134,-1.049563 0.09052,0 0.572658,0.08396 1.071419,0.186589 1.584584,0.326041 1.805276,0.284289 3.946312,-0.746566 l 1.418119,-0.682788 v -0.970723 -0.970723 l -1.189504,-0.563075 c -1.5892,-0.752279 -2.488863,-1.104026 -2.823766,-1.104026 -0.152149,0 -0.784972,0.109174 -1.406274,0.242609 -0.621301,0.133436 -1.16378,0.206905 -1.205509,0.163266 -0.09788,-0.102359 -1.086959,-2.524969 -1.156032,-2.831531 -0.04734,-0.210117 0.02817,-0.284098 0.761826,-0.746356 1.12542,-0.709098 1.414741,-0.986011 1.70581,-1.632653 0.32238,-0.716201 1.208493,-3.149294 1.208493,-3.318286 0,-0.183485 -1.13005,-1.29979 -1.315794,-1.29979 -0.243008,0 -3.065589,1.018209 -3.559003,1.283864 -0.442824,0.238416 -0.830999,0.680986 -1.505279,1.716211 -0.189067,0.290275 -0.398415,0.573134 -0.465219,0.628576 -0.09042,0.07504 -0.475915,-0.04206 -1.508466,-0.458214 -0.762853,-0.307459 -1.42671,-0.598721 -1.475238,-0.647249 -0.05545,-0.05545 -0.01367,-0.462624 0.112439,-1.095797 0.350368,-1.759193 0.31156,-1.95939 -0.859936,-4.436137 l -0.518504,-1.09621 h -0.986633 -0.986633 l -0.509342,1.084002 c -0.280139,0.596201 -0.659869,1.460232 -0.843848,1.92007 -0.374341,0.935636 -0.375067,1.018972 -0.02331,2.674726 0.10214,0.480773 0.150846,0.908284 0.108238,0.950025 -0.04261,0.04174 -0.702858,0.330638 -1.467219,0.641993 -1.08314,0.441207 -1.41824,0.542454 -1.518893,0.45892 -0.07103,-0.05895 -0.460356,-0.577155 -0.865169,-1.151568 -0.665708,-0.944613 -0.783428,-1.06478 -1.232239,-1.257853 -0.781504,-0.336195 -3.257564,-1.215359 -3.42291,-1.215359 -0.0822,0 -0.43081,0.279206 -0.774697,0.620458 l -0.625249,0.620457 0.447451,1.268756 c 0.628089,1.78096 0.917597,2.441186 1.203541,2.744683 0.136336,0.144704 0.681639,0.558483 1.211784,0.919507 0.834244,0.568112 0.956835,0.684564 0.911365,0.865729 -0.0816,0.32511 -1.072624,2.690714 -1.166591,2.784681 -0.04939,0.04939 -0.546676,-0.01575 -1.213328,-0.158921 -0.621302,-0.133435 -1.254125,-0.242609 -1.406274,-0.242609 -0.338555,0 -1.354812,0.396758 -2.870414,1.12064 l -1.142857,0.545852 v 0.969707 0.969707 l 1.376094,0.666639 c 2.196496,1.064077 2.372439,1.09784 3.988338,0.765356 0.49876,-0.102624 0.980092,-0.186589 1.069625,-0.186589 0.113692,0 0.27663,0.246198 0.540255,0.816326 0.534473,1.155879 0.862945,1.957246 0.859254,2.096315 -0.0017,0.06569 -0.510531,0.471627 -1.13064,0.902091 -1.300641,0.902874 -1.226612,0.788449 -2.140715,3.308852 l -0.546237,1.506107 0.664837,0.669304 0.664837,0.669303 1.133601,-0.402137 c 1.855158,-0.658106 2.601622,-0.980482 2.884036,-1.245534 0.146891,-0.137861 0.55716,-0.680977 0.911708,-1.206924 0.354548,-0.525948 0.685508,-0.956269 0.735468,-0.956269 0.143603,0 2.665463,1.024265 2.84489,1.155465 0.152508,0.111517 0.150081,0.168454 -0.04337,1.017636 -0.237791,1.043817 -0.262643,1.915929 -0.06968,2.444975 0.07486,0.205248 0.441427,1.013411 0.814586,1.795918 l 0.67847,1.422741 h 0.951141 0.95114 z"
     id="path6" />
  <path
     style="fill:#c2544f;fill-opacity:1;stroke-width:0.0932945"
     d="m 91.981212,36.246798 -9.52316,-0.04855 -0.802194,-0.397548 c -0.881437,-0.43682 -1.443071,-0.972091 -1.785385,-1.701578 -0.191964,-0.409086 -0.1985,-0.572565 -0.255509,-6.39067 -0.03218,-3.283965 -0.06367,-8.300783 -0.06997,-11.148485 l -0.01147,-5.177639 8.029256,8.02312 c 4.41609,4.412716 10.004887,10.027785 12.419548,12.477931 l 4.390292,4.45481 -1.43412,-0.02142 c -0.78877,-0.01178 -5.719553,-0.04327 -10.957292,-0.06997 z"
     id="path7" />
  <path
     style="fill:#c2544f;fill-opacity:1;stroke-width:0.0932945"
     d="m 71.011988,93.249107 c -3.162459,-0.570972 -5.773792,-2.817113 -6.86043,-5.901004 l -0.33736,-0.957432 -3.94e-4,-1.679301 c -4.56e-4,-1.948422 0.0869,-2.386354 0.75372,-3.778425 1.078764,-2.252064 2.872969,-3.801598 5.356674,-4.626197 0.745876,-0.247633 0.89003,-0.263532 2.425656,-0.267521 1.897313,-0.0049 2.344892,0.08497 3.727111,0.748632 1.419698,0.681655 2.655187,1.709774 3.44672,2.868211 0.469566,0.687225 1.19604,2.273904 1.374868,3.002822 0.245546,1.000874 0.226006,2.935429 -0.0404,4.000186 -0.766581,3.063771 -3.069152,5.447211 -6.149639,6.365622 -0.658536,0.196335 -1.057276,0.250314 -2.032125,0.2751 -0.667056,0.01696 -1.416034,-0.0059 -1.664397,-0.05069 z"
     id="path8" />
  <path
     style="fill:#c2544f;fill-opacity:1;stroke-width:0.0932945"
     d="m 46.798717,61.75369 c -1.748455,-0.470266 -3.253004,-1.968373 -3.780982,-3.764792 -0.193378,-0.657959 -0.193423,-1.966822 -9e-5,-2.625026 0.645946,-2.199137 2.778543,-3.811894 5.047734,-3.817304 1.927338,-0.0046 3.692781,1.101867 4.577054,2.868591 0.473396,0.945815 0.619207,1.622674 0.557463,2.587756 -0.174395,2.725891 -2.500078,4.915353 -5.196173,4.89182 -0.386887,-0.0034 -0.92914,-0.06685 -1.205006,-0.141045 z"
     id="path9" />
</svg>
